<?xml version="1.0" encoding="UTF-8"?>
<svg width="1200pt" height="1200pt" version="1.1" viewBox="0 0 1200 1200" xmlns="http://www.w3.org/2000/svg">
 <g>
  <path d="m693.75 975v-18.75h-21.426c-8.082 0-16.113 1.1328-23.879 3.3711l-2.5781 0.74219-25.582 7.375c-4.3867 1.2656-8.9258 1.9062-13.492 1.9062-3.6406 0-7.2852-0.41016-11.172-1.293l-88.824-18.574c-5.043-1.0547-8.7031-5.5586-8.7031-10.711 0-6.0312 4.9102-10.941 10.941-10.941h48.082c17.527 0 35-2.3125 51.934-6.8672 5-1.3477 7.9648-6.4922 6.6211-11.488-1.3477-4.9961-6.4805-7.957-11.488-6.6211-11.242 3.0273-22.75 4.9375-34.344 5.7539v-0.82031c0-5.625 3.7656-10.664 9.1602-12.258l36.488-10.781c6.2734-1.8516 12.695-3.0586 19.18-3.7383 3.7266-0.39063 7.4648-0.65625 11.223-0.65625 5.4297 0 10.906 0.41797 16.273 1.2422l31.586 4.8438v-15.031c0-1.3672 0.35547-2.6289 0.88281-3.8047 1.332-2.9609 4.0977-5.1641 7.5156-5.5195l122.85-12.855v-253.97c-8.3828-1.9727-16.113-6.1133-22.355-12.355l-67.578-67.574h-11.461c-49.41 0-96.82 19.504-131.93 54.27l-110.14 109.07c-16.328 16.168-38.023 25.777-60.969 27l-148.69 7.9336v13.242l-28.746-4.4102c-6.3438-0.97266-12.734-1.457-19.117-1.457-12.059 0-24.086 1.7305-35.715 5.1641l-36.488 10.777c-13.402 3.9609-22.598 16.266-22.598 30.238v1.2969h-42.051c-16.398 0-29.691 13.293-29.691 29.691 0 14.055 9.8555 26.188 23.613 29.062l88.824 18.574c4.9453 1.1289 9.9766 1.6914 15.008 1.6914 6.2969 0 12.59-0.88281 18.688-2.6406l28.16-8.1172c6.0742-1.75 12.367-2.6367 18.688-2.6367h21.426v18.75h164.77c41.348 0 82.188-9.1172 119.61-26.703l61.977-29.121c0 26.906 4.0742 48.738 9.5195 65.91-5.9297 0.86328-11.805 2.1445-17.578 3.8516l-36.488 10.777c-13.402 3.9609-22.598 16.266-22.598 30.238l0.003907 1.2969h-42.051c-16.398 0-29.691 13.293-29.691 29.691 0 14.055 9.8555 26.188 23.613 29.062l88.824 18.574c4.9453 1.1289 9.9766 1.6914 15.008 1.6914 6.2969 0 12.59-0.88281 18.688-2.6406l16.16-4.6562-22.859 112.03c-2.3672 11.621 6.5117 22.496 18.375 22.496h187.85v-131.25h-121.88c-5.1758 0-9.375-4.1992-9.375-9.375zm-508.84-145.98c-3.6406 0-7.2852-0.41016-11.172-1.293l-88.824-18.574c-5.043-1.0547-8.7031-5.5586-8.7031-10.711 0.003906-6.0312 4.9141-10.941 10.945-10.941h49.969c17.531 0 35.004-2.3125 51.938-6.8672 5-1.3477 7.9648-6.4922 6.6211-11.488-1.3398-5-6.4727-7.9453-11.488-6.6211-11.852 3.1914-24 5.1367-36.234 5.8672v-0.9375c0-5.625 3.7656-10.664 9.1602-12.258l36.488-10.781c9.875-2.918 20.105-4.3984 30.406-4.3984 5.4297 0 10.902 0.41797 16.273 1.2422l31.582 4.8516v69.516h-21.426c-8.082 0-16.113 1.1328-23.879 3.3711l-28.16 8.1172c-4.3906 1.2656-8.9297 1.9062-13.496 1.9062z"/>
  <path d="m1074.2 878.52 0.14062-2.8633-77.566 78.207c-19.227 19.391-45.914 30.508-73.219 30.508h-79.812v131.25h227.84c10.988 0 19.621-9.4062 18.68-20.355l-15.363-178.89c-1.082-12.586-1.3125-25.234-0.69531-37.852z"/>
  <path d="m588.89 294.7c22.863 0 44.223-4.4258 63.605-12.461-14.395 11.355-28.703 17.117-37.008 17.117-15.531 0-28.125 12.594-28.125 28.125s12.594 28.125 28.125 28.125c13.004 0 28.473-4.1172 44.273-11.887 0.007812 0.039062 0.019531 0.074218 0.027343 0.11328-17.453 16.789-39.336 26.73-62.465 26.73-15.531 0-28.125 12.594-28.125 28.125s12.594 28.125 28.125 28.125c25.852 0 50.562-7.4805 72.492-20.582-10.418 11.254-22.895 16.953-37.203 22.258-14.566 5.3984-21.996 21.578-16.598 36.145 4.2031 11.344 14.945 18.359 26.375 18.359 3.2461 0 6.5469-0.56641 9.7695-1.7617 25.309-9.3789 47-21.727 64.176-42.84 29.367 24.762 67.246 39.738 108.66 39.738 64.859 0 121.09-36.637 149.34-90.305 3.2266 20.836 5.4961 43.098 5.4961 64.93 0 15.531 12.594 28.125 28.125 28.125s28.125-12.594 28.125-28.125c0-38.984-6.1055-78.496-12.965-110.68 11.176 8.0039 24.426 15.199 40.449 20.664 3.0078 1.0234 6.0703 1.5156 9.082 1.5156 11.699-0.003906 22.629-7.3594 26.613-19.051 5.0117-14.703-2.8398-30.688-17.543-35.699-50.66-17.281-58.258-60.023-58.508-61.508-0.21094-1.4883-0.53516-2.9531-0.98047-4.3906-26.602-86.234-116.46-119.07-147.18-127.95-13.133-22.379-39.133-43.945-87.953-43.945-57.668 0-85.004 30.129-106.96 54.34-19.477 21.477-32.352 35.664-64.648 35.664-15.531 0-28.125 12.594-28.125 28.125s12.594 28.125 28.125 28.125c18.555 0 33.918-3.1875 47.008-8.2734-18.805 18.527-43.957 28.754-73.609 28.754-15.531 0-28.125 12.594-28.125 28.125 0.007813 15.531 12.602 28.125 28.133 28.125zm379.28 59.441c-19.086 60.914-76.043 105.24-143.17 105.24-37.387 0-71.539-13.84-97.832-36.543-12.082-10.434-22.426-22.762-30.691-36.512-2.8164-4.6875-5.3945-9.5195-7.6992-14.52-5.5039-11.957-9.4375-24.742-11.633-38.133-0.49609-3.0234-1.0664-6.0234-1.3789-9.1016-0.5-5-0.76562-10.066-0.76562-15.191 0-5.2344 0.27734-10.402 0.80469-15.5 5.293-0.13672 10.406-0.43359 15.336-0.89844 11.914-1.1172 22.855-3.0977 32.797-5.8945 9.9766-2.8086 18.996-6.3828 27.168-10.578 39.367-20.211 58.895-54.68 68.41-86.387 5 23.379 16.484 49.488 42.457 61.656 15.125 7.0859 26.949 19.551 31.723 35.559 7.8359 26.266 27.16 62.289 74.422 66.582 0.042968 0.003907 0.085937 0.003907 0.12891 0.007813-0.019532 0.074219-0.054688 0.14062-0.078125 0.21484z"/>
  <path d="m262.5 136.04c5.1758 0 9.375-4.1992 9.375-9.375v-28.125c0-5.1758-4.1992-9.375-9.375-9.375s-9.375 4.1992-9.375 9.375v28.125c0 5.1758 4.1992 9.375 9.375 9.375z"/>
  <path d="m324.9 149.98c1.1445 0.45703 2.3242 0.67578 3.4883 0.67578 3.7188 0 7.2383-2.2305 8.707-5.8867l10.473-26.102c1.9258-4.8047-0.40625-10.262-5.2109-12.195-4.8008-1.9336-10.27 0.40234-12.195 5.2109l-10.473 26.102c-1.9258 4.8086 0.41016 10.266 5.2109 12.195z"/>
  <path d="m377.95 181.43c2.7227 0 5.4297-1.1797 7.2812-3.4648l17.734-21.832c3.2656-4.0195 2.6523-9.918-1.3672-13.188-4.0117-3.25-9.9141-2.6602-13.188 1.3672l-17.734 21.832c-3.2656 4.0195-2.6523 9.918 1.3672 13.188 1.7344 1.4102 3.8281 2.0977 5.9062 2.0977z"/>
  <path d="m185.24 144.77c1.4688 3.6641 4.9844 5.8906 8.707 5.8906 1.1562 0 2.3398-0.21875 3.4844-0.67578 4.8047-1.9258 7.1406-7.3867 5.2148-12.191l-10.469-26.102c-1.9219-4.7969-7.375-7.1445-12.191-5.2148-4.8047 1.9258-7.1406 7.3867-5.2148 12.191z"/>
  <path d="m137.11 177.96c1.8555 2.2852 4.5586 3.4648 7.2812 3.4648 2.0781 0 4.1719-0.6875 5.9062-2.0977 4.0195-3.2695 4.6328-9.168 1.3672-13.188l-17.734-21.832c-3.2656-4.0273-9.1836-4.625-13.188-1.3672-4.0195 3.2695-4.6328 9.168-1.3672 13.188z"/>
  <path d="m120.71 379.05 32.441 70.293c7.4805 16.203 13.086 33.289 16.672 50.781l6.6797 32.621c2.4219 11.809 12.922 20.379 24.977 20.379h118.87c12.059 0 22.559-8.5742 24.973-20.379l6.6836-32.621c3.5859-17.492 9.1914-34.574 16.672-50.781l32.438-70.293c0.21094-0.46094 0.38281-0.94141 0.51562-1.4297 8.0508-18.973 12.137-39.027 12.137-59.633 0-42.184-16.809-81.461-47.328-110.59-30.504-29.117-70.625-44.047-112.82-42.109-76.652 3.5625-139.03 63.918-145.11 140.39-1.9805 24.965 1.9688 49.238 11.742 72.156 0.12109 0.41406 0.27734 0.82031 0.45313 1.2148zm124.38 155.32-49.285-220.14 42.352 24.332c7.0156 4.0312 14.895 6.0508 22.773 6.0508 7.8516 0 15.707-2.0039 22.719-6.0195l42.617-24.406-49.285 220.19zm-117.89-227.21c5.2383-65.98 61.148-120.07 127.28-123.15 37.094-1.6836 72.246 11.395 99 36.941 26.777 25.562 41.527 60.023 41.527 97.031 0 18.461-3.7344 36.418-11.105 53.383-0.14844 0.32812-0.26562 0.66406-0.37109 1.0039l-31.891 69.113c-8.0781 17.516-14.141 35.977-18.008 54.871l-6.6875 32.629c-0.63672 3.1211-3.4141 5.3867-6.6016 5.3867h-24.152l53.023-236.84c0.10938-0.48438 0-0.94531 0.03125-1.4219 0.046875-0.67578 0.14453-1.332 0.042969-2.0078-0.10547-0.71094-0.40234-1.3398-0.66406-2-0.16406-0.42187-0.19141-0.87109-0.42187-1.2734-0.035157-0.0625-0.10156-0.09375-0.13672-0.15625-0.375-0.62109-0.91406-1.1016-1.4219-1.6211-0.35156-0.35547-0.62891-0.79297-1.0234-1.082-0.40234-0.29688-0.90625-0.4375-1.3594-0.66797-0.64062-0.32812-1.25-0.69531-1.9453-0.87109-0.074219-0.019532-0.125-0.070313-0.19922-0.089844-0.45703-0.10156-0.89844 0.007812-1.3516-0.023438-0.70313-0.054687-1.3945-0.14844-2.1016-0.039062-0.62109 0.097656-1.1719 0.36719-1.7578 0.58203-0.49609 0.17969-1.0195 0.22656-1.4961 0.49609l-61.07 34.973c-8.2812 4.7422-18.559 4.7383-26.84-0.023437l-60.828-34.945c-0.48828-0.28125-1.0273-0.33203-1.5391-0.51562-0.56641-0.20312-1.0898-0.46875-1.6914-0.56641-0.71875-0.10938-1.418-0.019532-2.1328 0.035156-0.45312 0.03125-0.89453-0.078125-1.3516 0.023438-0.074219 0.015624-0.12891 0.070312-0.20312 0.089843-0.65625 0.16406-1.2344 0.51953-1.8438 0.82031-0.48828 0.24609-1.0312 0.39844-1.4609 0.71875-0.375 0.27734-0.63672 0.69141-0.97266 1.0273-0.52734 0.53516-1.082 1.0312-1.4688 1.6719-0.035156 0.0625-0.097656 0.09375-0.13672 0.15234-0.23438 0.41016-0.26172 0.86328-0.42969 1.2891-0.26172 0.65625-0.55469 1.2812-0.66406 1.9883-0.10547 0.68359-0.003906 1.3516 0.042969 2.0312 0.03125 0.47266-0.078125 0.92969 0.027344 1.4062l53.023 236.84h-24.398c-3.1914 0-5.9688-2.2695-6.6094-5.3906l-6.6797-32.621c-3.8672-18.898-9.9297-37.359-18.008-54.871l-32.004-69.336c-0.085938-0.26562-0.1875-0.52734-0.30078-0.78906-8.8477-20.367-12.438-41.965-10.672-64.203z"/>
  <path d="m196.88 571.88c-2.9023 0-5.6367 1.3398-7.4102 3.6328-1.7773 2.293-2.3906 5.2773-1.668 8.0898l13.445 52c3.1445 12.16 14.113 20.652 26.668 20.652h66.453c12.555 0 23.523-8.4922 26.668-20.648l13.449-52c0.72266-2.8125 0.10938-5.7969-1.668-8.0898-1.7734-2.2969-4.5039-3.6367-7.4062-3.6367zm106 59.027c-1.0039 3.8867-4.5039 6.5977-8.5156 6.5977h-66.453c-4.0117 0-7.5117-2.7109-8.5156-6.5977l-10.41-40.277h104.31z"/>
  <path d="m923.56 965.62c22.344 0 44.18-9.0977 59.906-24.957l90.512-91.258c0.61719-0.625 1.1406-1.3125 1.75-1.9453 33.551-34.781 52.09-80.375 52.09-128.8 0-54.965-24.129-106.77-66.207-142.12l-29.203-24.551-0.007812 0.011718c-25.77-22.242-59.246-35.809-96.004-36.277l-67.469 67.469c-6.9375 6.9453-15.695 11.336-25.18 12.957v251.41l25.148-2.6328c10.359-1.0859 19.223-7.7539 23.137-17.402l40.723-100.44c1.9453-4.7969 7.4062-7.1133 12.207-5.168 0.26172 0.10547 0.42969 0.32031 0.67578 0.44531 4.2812 2.1914 6.332 7.2266 4.4922 11.762l-40.723 100.44c-6.5234 16.09-21.297 27.203-38.562 29.012l-27.098 2.8398-18.75 1.9609-112.5 11.773v85.473z"/>
 </g>
</svg>
